<svg xmlns="http://www.w3.org/2000/svg" width="17.325" height="24" viewBox="0 0 17.325 24"><g transform="translate(-4.447 0)"><path d="M18.075,9.81l-2.4,2.234L13.445,7.55,14.6,4.964c.3-.525.768-.519,1.06,0Z" transform="translate(-2.252 -1.144)" fill="#ffa000"/><path d="M11.193,8.543l2.228,4.495L4.447,21.386Z" transform="translate(0 -2.138)" fill="#f57f17"/><path d="M18.449,6.924c.429-.412.873-.271.986.313l2.336,13.574-7.743,4.648a3.659,3.659,0,0,1-.99.214,3.359,3.359,0,0,1-.9-.225L4.447,20.922Z" transform="translate(0 -1.673)" fill="#ffca28"/><path d="M11.193,6.405,4.448,19.248l3-18.77c.111-.585.444-.641.741-.125Z" transform="translate(0)" fill="#ffa000"/></g></svg>