<svg xmlns="http://www.w3.org/2000/svg" width="19" height="19" viewBox="0 0 19 19"><g transform="translate(-3 -2)"><path d="M17,19.22H5V7h7V5H5A2.006,2.006,0,0,0,3,7V19a2.006,2.006,0,0,0,2,2H17a2.006,2.006,0,0,0,2-2V12H17Z" fill="#fff"/><path d="M19,2H17V5H14c.01.01,0,2,0,2h3V9.99c.01.01,2,0,2,0V7h3V5H19Z" fill="#fff"/><rect width="8" height="2" transform="translate(7 9)" fill="#fff"/><path d="M7,12v2h8V12H7Z" fill="#fff"/><rect width="8" height="2" transform="translate(7 15)" fill="#fff"/></g></svg>